<svg xmlns="http://www.w3.org/2000/svg" viewBox="0 0 185.93 181.11"><defs><style>.cls-1{fill:#272467;}.cls-2{fill:#f59593;}.cls-3{fill:#98b0db;}.cls-4{fill:#515ca8;}.cls-5{fill:#a19bb9;}.cls-6{fill:#e8ecf5;}</style></defs><title>old schoolAsset 1</title><g id="Layer_2" data-name="Layer 2"><g id="Layer_1-2" data-name="Layer 1"><path class="cls-1" d="M183.64,95.24a70.5,70.5,0,0,1-2.9,23.64c-6.47,21-19.62,36.39-39.45,45.93a71,71,0,0,1-33.3,6.87,71.94,71.94,0,0,1-22.57-4.34,2.56,2.56,0,0,0-.46-.11,8.37,8.37,0,0,1-.48-.82c-1.48-3.3-2.92-6.62-4.42-9.9a1.64,1.64,0,0,1,.54-2.26c.13.4.5.51.82.66a65,65,0,0,0,40.81,5.81,66.26,66.26,0,0,0,16.68-5.78,63.84,63.84,0,0,0,18.81-14.56,63.46,63.46,0,0,0,15.46-34.14,38.39,38.39,0,0,0,.41-8.23c.72-.22,1.43-.48,2.15-.67C178.38,96.64,181,95.71,183.64,95.24Z"/><path class="cls-1" d="M76,32.63a77.18,77.18,0,0,1,21-6.77,74,74,0,0,1,24.67-.23,73.67,73.67,0,0,1,60.62,58c.58,2.77.88,5.59,1.21,8.4-3.56-.62-7.05-1.55-10.53-2.5a29.76,29.76,0,0,0-1.31-7.27,63.57,63.57,0,0,0-64.17-47.58,67.17,67.17,0,0,0-16,2.53,37.31,37.31,0,0,0-8.27,3.09C81.8,38.88,80.38,37.44,79,36A24,24,0,0,1,76,32.63Zm19.62-2.94a47.35,47.35,0,0,0-11.2,3.17C88.15,31.71,91.86,30.61,95.66,29.69ZM114,28.36a28.37,28.37,0,0,0-7.59,0Zm16.86,3.11a13,13,0,0,0-5.21-1.36Zm-13.12-2.7,4.56.67A9.62,9.62,0,0,0,117.73,28.77Zm-13-.18v-.33a13.86,13.86,0,0,0-4.07.75Zm32.79,5.17a7.54,7.54,0,0,0-2.86-1A8.36,8.36,0,0,0,137.54,33.76Zm-3-1.23c-.51-.24-.81-.54-1.35-.3C133.62,32.4,133.91,32.69,134.54,32.53Z"/><path class="cls-2" d="M173,89.57c3.48,1,7,1.88,10.53,2.5.5.15,1,.32,1.48.44a1.13,1.13,0,0,1,1,1.07,1.16,1.16,0,0,1-.94,1.21c-.45.14-.9.3-1.35.45-2.69.47-5.26,1.4-7.9,2.1-.72.19-1.43.45-2.15.67l-6.7,1.87c-3.1.89-6.26,1.6-9.3,2.72a5.94,5.94,0,0,0-1.86.39c-2.27.62-4.54,1.25-6.8,1.91a1.29,1.29,0,0,1-1.52-.31c-.44-.53-.23-1,.05-1.55.66-1.23,1.3-2.47,1.93-3.72s.19-2.09-1.38-2l-7.31.26-25.16.77a1.39,1.39,0,0,0-1.33.75,5.13,5.13,0,0,1-6.66,2.06,5.19,5.19,0,0,1-2.69-6.55,1.33,1.33,0,0,0-.13-1.32Q94,75.93,83.33,58.6c-.75-1.22-1.37-1.27-2.34-.24q-1.72,1.83-3.42,3.69c-.39.42-.76.86-1.41.71s-.87-.77-1-1.35c-.26-1-.49-2.1-.75-3.14Q73,52.52,71.49,46.79q-1-5.2-2.53-10.29-1.18-4.93-2.38-9.88a5.43,5.43,0,0,0-.13-.58c-.2-.65-.3-1.31.38-1.71s1.28-.09,1.79.47q2.31,2.52,4.65,5c.91,1,1.85,1.88,2.77,2.82A24,24,0,0,0,79,36c1.39,1.47,2.81,2.91,4.22,4.37,2.24,2.55,4.52,5.06,7,7.41A21.34,21.34,0,0,0,93,50.84c.26.3.53.6.78.91s.89.84.61,1.56-.94.8-1.59.8c-1.36,0-2.72,0-4.07,0-1.55,0-1.94.68-1.21,2.05Q96.9,73.57,106.23,91c.38.7.65,1,1.52.6a5.06,5.06,0,0,1,7,3.27c.25.82.64.87,1.37.79,3.69-.41,7.38-.76,11.08-1.13l20.73-2.11c1.39-.15,1.71-.69,1.24-2-.57-1.61-1.19-3.22-1.73-4.84-.45-1.32.23-2.05,1.6-1.73s2.7.68,4.06,1ZM72.47,31.66l-.08-.08.09.07.24.24.24.23.09.07-.1-.06-.24-.23Zm-.71-1,.08.08-.09-.07-.24-.24A.65.65,0,0,0,71,30l-.09-.07L71,30a.57.57,0,0,0,.48.47Zm-1.23,3.83-.19,0q2.76,11.14,5.51,22.27l.24-.06Q73.32,45.63,70.53,34.51Z"/><path class="cls-3" d="M35.05,102.69a24.78,24.78,0,0,1-9.77-3.36c-5.2-3-9.28-7.11-11.13-12.93a32.45,32.45,0,0,0-6-10.8A56.85,56.85,0,0,0,.76,68.15c-.55-.46-.91-.91-.7-1.61s.77-.7,1.34-.81a143.05,143.05,0,0,1,16.07-2.11C23,63.21,28.52,63,34,64.47a10.58,10.58,0,0,1,6.19,4,.82.82,0,0,0,.59.37,78.67,78.67,0,0,0-4.41,13.56,19.92,19.92,0,0,0-4.63-5.13,33.43,33.43,0,0,0-17.07-7.12c-1-.14-2.11-.61-3.4,0,2,.41,3.89.69,5.68,1.15,6.14,1.62,11.76,4.19,16.2,8.93C34.2,81.34,34.91,82.79,36,84c-.33,3-.8,5.89-1,8.86C34.79,96.11,35.07,99.4,35.05,102.69Z"/><path class="cls-2" d="M28.18,134.08c-4.52-2.38-5.17-7.48-3.27-11.61S30,115.05,33.35,112c.89-.8,1.81-1.56,2.71-2.34a8.89,8.89,0,0,0,1.19-.75,5.38,5.38,0,0,1,3.84-1.3,24.43,24.43,0,0,1,4.83.67c.88.35,1.78.67,2.66,1a1.2,1.2,0,0,0,1.7-.46,21.5,21.5,0,0,1,1.81-2.23c.35-.41.59-.61-.11-1a2.41,2.41,0,0,1-.65-3.35c1.8-.37,2.23,0,2.28,1.81,0,1.47.34,2.94.27,4.4-.07,1.69.86,2.3,2.25,2.64-.81,1.79-.81,1.79.76,3,.58.43,1.15.86,1.72,1.31,1.69,1.32,2.34,3.58,1,5.24a5.37,5.37,0,0,0-1,4.36c.28,2.32,1.42,4.05,4.21,3.48,1.11-.22,2.09-.76,3.15-1.08-.33,1.73-1.37,3.16-2,4.75-.16.35-.54.29-.85.28l-5.61-.05-2-.94h0l-.21-.18a5.52,5.52,0,0,0-1.49-1c0-.09-.05-.23-.16-.14s0,.17.11.2c0,.73.73,1.28.62,2-1.42.28-2.65.14-3.46-1.2-.25-.41-.56-.52-.92,0a27.13,27.13,0,0,0-2.34,3Z"/><path class="cls-1" d="M45.92,108.3a24.43,24.43,0,0,0-4.83-.67,5.38,5.38,0,0,0-3.84,1.3,8.89,8.89,0,0,1-1.19.75q-.5-3.5-1-7c0-3.29-.26-6.58,0-9.88.19-3,.66-5.91,1-8.86a5,5,0,0,0,.33-1.57,78.67,78.67,0,0,1,4.41-13.56A72.89,72.89,0,0,1,68.28,37l.68-.47q1.5,5.07,2.53,10.28A63.06,63.06,0,0,0,53.91,65.33a60.7,60.7,0,0,0-9,29.88A69.22,69.22,0,0,0,45.92,108.3ZM59.3,48.72l.24-.25.25-.22c.19-.12.51-.34.4-.45-.28-.28-.39.16-.58.28l-.25.23-.24.25c-.07.11-.24.22,0,.33C59.12,48.91,59.23,48.78,59.3,48.72Zm-1.91,1.92c.06-.08.19-.22.17-.24-.16-.21-.25,0-.36.08l-.21.21-.24.26c-.12.18-.54.29-.27.57.1.1.33-.2.44-.39l.22-.26ZM43.69,71.26c-.37-.1-.37.26-.43.42-.68,1.85-1.38,3.7-2,5.58a5.12,5.12,0,0,0-.54,2.56c.83-2.91,2-5.69,2.94-8.58l0,0ZM56,51.86a1.2,1.2,0,0,0-.13.31c0,.13,0,.14,0,0l.12-.31Zm2.46-2.25a1.65,1.65,0,0,0,.28-.32c0-.11,0-.22-.16-.15a1.47,1.47,0,0,0-.29.32Zm-.5.11-.16.29c.06,0,.16.07.19.05a1.38,1.38,0,0,0,.19-.28Z"/><path class="cls-3" d="M28.18,134.08l19.44,0H85.93c.2,0,.4,0,.6-.06,2,0,4.07.06,6.11.07,2.84,0,3,.25,2,2.82-.06.15-.11.3-.16.46a1.92,1.92,0,0,1-2.25,1.49,25.31,25.31,0,0,1-2.76,0c-1.84-.32-2.82.49-3.26,2.18-.12.45-.57.83-.38,1.33a3.14,3.14,0,0,1-1.67,4.33,1.58,1.58,0,0,0-.87.89c-.89,2-1.77,4-2.68,6a.75.75,0,0,0,0,.67,1.64,1.64,0,0,0-.54,2.26c1.5,3.28,2.94,6.6,4.42,9.9a8.37,8.37,0,0,0,.48.82c1,2.93,2.5,5.69,3.69,8.56.41,1,.88,2,1.33,3,.3.65.54,1.37-.27,1.77s-1.1-.39-1.35-.95q-2.81-6.21-5.57-12.45L82.3,166l-3.62-8.22-2.33,5.58-4.83,10.67c-.83,1.85-1.65,3.72-2.5,5.57-.26.57-.54,1.28-1.4.86s-.51-1-.23-1.62q3.57-8,7.1-16a2.64,2.64,0,0,0,.13-.46c1-2.12,1.93-4.24,2.91-6.35a1,1,0,0,0,0-.9c-.57-1.17-1.12-2.35-1.68-3.53-1.63-4.15-3.57-8.17-5.35-12.25a.88.88,0,0,0-.94-.55c-2.87,0-5.74,0-8.61,0l-12.45,0a9.33,9.33,0,0,0-4-.07H37.3c-.14-.2-.32-.09-.49-.05l-7.18.14c-1-.21-1.45.21-1.85,1.16-2.06,4.76-4.2,9.48-6.34,14.21a2.77,2.77,0,0,0-.05,2.57c3.23,7.12,6.39,14.28,9.54,21.44.31.7,1.09,1.65-.05,2.17s-1.23-.68-1.53-1.35q-4.44-9.94-8.87-19.9a1.81,1.81,0,0,0-.73-1.06l-2.47,5.55c-2.35,5.28-4.69,10.58-7,15.86-.25.57-.51,1.3-1.38.92s-.57-1-.29-1.61q4.11-9.24,8.2-18.49c.57-1.28,1.1-2.57,1.71-3.83a2.14,2.14,0,0,0,0-1.94c-2.14-4.77-4.28-9.54-6.34-14.34a2,2,0,0,0-2.22-1.44c-2.19.11-3.47-1.7-2.91-3.92.21-.83.87-.8,1.53-.8l18.11,0C27.15,134.11,27.67,134.09,28.18,134.08Zm-8.39,19.2a6.94,6.94,0,0,0,1.08-2.11c1.65-3.71,3.31-7.42,4.95-11.13.18-.43.82-1.13-.34-1.13-3.94,0-7.89,0-12,0Zm58.92.12c2.13-4.81,4.1-9.26,6.08-13.7.4-.89-.18-.82-.72-.82-3.56,0-7.12,0-10.67,0-1.05,0-1,.37-.66,1.12,1.17,2.58,2.29,5.18,3.44,7.77Z"/><path class="cls-4" d="M29.63,138.93l7.18-.14.53.06a11.82,11.82,0,0,0,7.23,0,17.88,17.88,0,0,0,4.64,1.23c.72.24,1.43.49,2.15.72,4.11,1.3,8.14,2.79,11.55,5.55a5.55,5.55,0,0,1,1.92,3.34,14.81,14.81,0,0,1-.48,6,56.72,56.72,0,0,1-5.86,12.73c-.32.54-.63,1-1.37.8a13.21,13.21,0,0,1-2.79-1.39c-.62-.44-.23-.92,0-1.36A29.94,29.94,0,0,0,57,157.61c.27-2.37.24-4.73-1.78-6.5a22.84,22.84,0,0,0-7.61-3.75c.91,1.75,1.69,3.51,2.48,5.26.46,1.4,1,2.78,1.31,4.22.93,4,1.5,8,2.28,12.08a12.44,12.44,0,0,0,.46,2.9c-.15.34-.31.69-.46,1-1-.34-1.86.47-2.83.46-.79-.25-1.17-.93-1.61-1.53a25.33,25.33,0,0,1-2.91-5.49c-.92-2.29-1.77-4.59-2.66-6.89-.55-2.14-1-4.33-2.39-6.12a3.22,3.22,0,0,0-.89-1,18.43,18.43,0,0,0-4-3.18c-2.11-1.39-4.41-2.49-6.32-4.18A9.8,9.8,0,0,1,29.63,138.93Z"/><path class="cls-2" d="M173.61,25.13c2.68,0,5.35,0,8,0a2.84,2.84,0,0,1,3.13,3.11q0,6.48,0,13c0,2.48-1.29,3.79-3.74,3.65-5.25-.29-10.51-.49-15.77-.76a2.85,2.85,0,0,1-2.77-2.9q0-6.64,0-13.3a2.74,2.74,0,0,1,2.87-2.74c2.76,0,5.51,0,8.27,0Zm-2.75,14.2h0a4,4,0,0,0,4.66,2,2.54,2.54,0,0,0,1.11-.67c.22-.22.37-.57.09-.72-1.18-.62-1.54-2.57-3.41-2.06a.64.64,0,0,1-.52-.24c-.83-1.17-3-1.53-2.29-3.64,0-.08-.09-.21-.16-.3-.56-.67-1.12-1.35-1.71-2s-1-.45-1.33.17a2.91,2.91,0,0,0-.21,3.06A16.19,16.19,0,0,0,170.15,39C170.34,39.22,170.52,39.48,170.86,39.33Zm2.51-10.56c-.3.15-1-.3-1,.37s.63.32,1,.34A6.1,6.1,0,0,1,179,35c0,.33-.26,1,.39.89s.31-.65.3-1A6.78,6.78,0,0,0,173.37,28.77Zm4.65,6.4a5.27,5.27,0,0,0-4.68-4.65c-.3,0-.73-.12-.77.32s.45.39.72.43a4.37,4.37,0,0,1,4,4.06c.05.26,0,.65.39.61S178,35.48,178,35.17Zm-1.86.24a3.18,3.18,0,0,0-2.72-3c-.28,0-.71-.19-.76.29s.3.37.59.43a2.39,2.39,0,0,1,2.16,2.42c0,.27,0,.64.38.61S176.12,35.67,176.16,35.41Z"/><path class="cls-2" d="M135.72,0h8.39c2.46,0,3.71,1.23,3.71,3.65V18a3.36,3.36,0,0,1-4.19,3.55,5.34,5.34,0,0,0-1.2,0,71.62,71.62,0,0,1-7.75-.3c-2.77-.14-5.56-.14-8.32-.43a3.35,3.35,0,0,1-2.92-3.38q-.1-7,0-14c0-2.23,1.39-3.39,3.65-3.4h8.64Zm-2.83,15.51a16.58,16.58,0,0,1-3,1.36c-.37.17-1,.13-.93.73s.7.6,1.16.56a51.06,51.06,0,0,0,5.11-.47c3.05-.54,6-1.34,8.19-3.8a6.88,6.88,0,0,0-2.14-10.58c-3.84-1.73-10-.76-13,2.93-3.27,4-1.36,7.77,2.84,8.86C131.57,15.23,132.08,15.33,132.89,15.51Z"/><path class="cls-2" d="M37.54,32.08c2.64,0,5.28,0,7.92,0A2.26,2.26,0,0,1,48,34.59q0,8,0,15.94a2.43,2.43,0,0,1-2.46,2.67c-2.83.2-5.66.34-8.48.49-2,.11-4.06.21-6.1.27a2.28,2.28,0,0,1-2.6-2.44L27.17,35.91c0-.52-.06-1-.05-1.56a2.17,2.17,0,0,1,2.27-2.25c2.72,0,5.44,0,8.15,0Zm0,2a7.46,7.46,0,0,0-3.34.82A5.91,5.91,0,0,0,31,41.54c1,3.54,2.95,6.61,4.88,9.67a2.11,2.11,0,0,0,3.6-.33,51.84,51.84,0,0,0,4-7.51,7,7,0,0,0,.8-3.57A6.54,6.54,0,0,0,37.54,34Z"/><path class="cls-2" d="M75.57,19.16c-2.08,0-4.15,0-6.23,0-1.69,0-2.34-.63-2.35-2.28q0-6.28,0-12.57c0-1.45.61-2.22,2-2.33q6.9-.58,13.81-1A1.77,1.77,0,0,1,84.94,3Q84.6,10,84.15,17.08c-.09,1.47-.85,2.08-2.35,2.09H75.57Zm6.77-8.83h0c0-1.4,0-2.8,0-4.2a1.34,1.34,0,0,0-1.62-1.46c-2.74.23-5.48.52-8.21.83-1.39.15-1.87,1.25-1.07,2.42q1.45,2.12,3,4.17a1.5,1.5,0,0,0,2.53,0c1.06-1.35,2.07-2.74,3.08-4.13.19-.26.58-.62.21-.93s-.71.09-.94.4c-1,1.3-2,2.6-2.94,3.93-.49.67-.86.74-1.35,0-.86-1.25-1.76-2.47-2.67-3.69-.56-.75-.58-1.19.52-1.3,2.57-.26,5.14-.57,7.72-.83.76-.08.94.45.94,1.08q0,3.66,0,7.32a1,1,0,0,1-1.07,1.13c-3,.15-6,.29-8.95.51-1.05.07-1.28-.34-1.26-1.3.06-2.4,0-4.8,0-7.19,0-.4,0-.9-.55-.88s-.39.53-.39.85q0,3.84,0,7.68c0,1.35.45,1.84,1.79,1.78,3.23-.14,6.46-.32,9.68-.52a1.49,1.49,0,0,0,1.54-1.74C82.31,13,82.34,11.65,82.34,10.33Z"/><path class="cls-1" d="M64.35,155.71a14.81,14.81,0,0,0,.48-6,5.55,5.55,0,0,0-1.92-3.34c-3.41-2.76-7.44-4.25-11.55-5.55-.72-.23-1.43-.48-2.15-.72l-.72-1.18,12.45,0a56.46,56.46,0,0,0,8.75,8.46,37.47,37.47,0,0,0,6.15,4.3c.56,1.18,1.11,2.36,1.68,3.53a1,1,0,0,1,0,.9c-1,2.11-1.94,4.23-2.91,6.35A88.06,88.06,0,0,1,64.35,155.71Z"/><path class="cls-3" d="M41.29,153.29c1.44,1.79,1.84,4,2.39,6.12,0,4.71,0,9.42,0,14.13,0,.92.31,1.14,1.18,1.13,2.19,0,4.39,0,6.58.07a2.9,2.9,0,0,0,.23,1.36H33.39c-.51,0-1.19.24-1.19-.71s.68-.72,1.19-.72c2.24,0,4.48,0,6.72,0,1,0,1.2-.31,1.2-1.23C41.28,166.73,41.29,160,41.29,153.29Z"/><path class="cls-1" d="M51.62,176.1a2.9,2.9,0,0,1-.23-1.36l0,0a1.56,1.56,0,0,0,2.16.6c.83-.38.39-1.13.23-1.75-.06-.23-.1-.46-.14-.69.15-.35.31-.7.46-1a1.72,1.72,0,0,0,1.78-.25A19.39,19.39,0,0,1,60,175.75c.81,1.29,1.29,2.75,2.16,4,.65,1,.32,1.42-.84,1.31C57.43,180.72,53.92,179.57,51.62,176.1Z"/><path class="cls-3" d="M30.11,144.91c1.91,1.69,4.21,2.79,6.32,4.18a18.43,18.43,0,0,1,4,3.18c-3,0-6,.09-9.08,0a2.75,2.75,0,0,1-2.86-2.39,6.86,6.86,0,0,1,.13-3.54C28.84,145.67,29.19,145,30.11,144.91Z"/><path class="cls-1" d="M76.35,163.38l2.33-5.58L82.3,166A42.73,42.73,0,0,1,76.35,163.38Z"/><path class="cls-2" d="M55.93,171.57a1.72,1.72,0,0,1-1.78.25,12.44,12.44,0,0,1-.46-2.91l.64-1.06a13.21,13.21,0,0,0,2.79,1.39Z"/><path class="cls-4" d="M80.6,154.25a.75.75,0,0,1,0-.67c.91-2,1.79-4,2.68-6a1.58,1.58,0,0,1,.87-.89,3.14,3.14,0,0,0,1.67-4.33c-.19-.5.26-.88.38-1.33.44-1.69,1.42-2.5,3.26-2.18a25.31,25.31,0,0,0,2.76,0,1.92,1.92,0,0,0,2.25-1.49c0-.16.1-.31.16-.46,1-2.57.87-2.81-2-2.82-2,0-4.07,0-6.11-.07A65.66,65.66,0,0,0,90,125.81c1.1-2.72,2-5.52,3.23-8.21.83-1.88.37-2.86-1.66-2.87l-16.89,0A3.73,3.73,0,0,0,71,117.08c-1.57,3.39-3,6.86-4.76,10.15l-.23.18h0c-1.06.32-2,.86-3.15,1.08-2.79.57-3.93-1.16-4.21-3.48a5.37,5.37,0,0,1,1-4.36c1.32-1.66.67-3.92-1-5.24-.57-.45-1.14-.88-1.72-1.31-1.57-1.17-1.57-1.17-.76-3a17.82,17.82,0,0,0,2.89.67c.71.07,1.13-.13,1.24-.91.17-1.22.41-2.43.64-3.64a1.18,1.18,0,0,0-.49-1.15A33.81,33.81,0,0,0,60.9,100c1.58-.09,2.2-.5,2.39-1.6a3.37,3.37,0,0,0-2.2-3.94A4.7,4.7,0,0,0,58,90.05a4.85,4.85,0,0,0-5.58,1.54A4.5,4.5,0,0,0,52,96.9a2.3,2.3,0,0,0,0,.59,1.75,1.75,0,0,1-.81,2.35c-.88.57-.74,1.43.09,2.44a2.41,2.41,0,0,0,.65,3.35c.7.42.46.62.11,1a21.5,21.5,0,0,0-1.81,2.23,1.2,1.2,0,0,1-1.7.46c-.88-.38-1.78-.7-2.66-1a69.22,69.22,0,0,1-1-13.09,60.7,60.7,0,0,1,9-29.88A63.06,63.06,0,0,1,71.49,46.79q1.45,5.73,2.9,11.48c.26,1,.49,2.09.75,3.14.15.58.31,1.19,1,1.35s1-.29,1.41-.71q1.7-1.86,3.42-3.69c1-1,1.59-1,2.34.24Q94,75.93,104.73,93.26a1.33,1.33,0,0,1,.13,1.32,5.19,5.19,0,0,0,2.69,6.55,5.13,5.13,0,0,0,6.66-2.06,1.39,1.39,0,0,1,1.33-.75l25.16-.77,7.31-.26c1.57-.06,2.07.65,1.38,2s-1.27,2.49-1.93,3.72c-.28.52-.49,1-.05,1.55a1.29,1.29,0,0,0,1.52.31c2.26-.66,4.53-1.29,6.8-1.91a5.94,5.94,0,0,1,1.86-.39,4.77,4.77,0,0,0,5.69,2.94,4.91,4.91,0,0,0,3.61-5.66l6.7-1.87a38.39,38.39,0,0,1-.41,8.23,63.64,63.64,0,0,1-34.27,48.7,66.26,66.26,0,0,1-16.68,5.78,65,65,0,0,1-40.81-5.81C81.1,154.76,80.73,154.65,80.6,154.25Zm19.14.49a4.92,4.92,0,1,0-.17-9.83,5,5,0,0,0-4.81,5A4.89,4.89,0,0,0,99.74,154.74Zm58.12-23c.82,0,1.18-.48.92-1.24a4.31,4.31,0,0,0-3.16-2.27c-.69,0-1.18.28-.94,1.11A4.2,4.2,0,0,0,157.86,131.7Zm-94-6.82a4.51,4.51,0,0,0,3.06-1.57.94.94,0,0,0-.86-1.62,4.29,4.29,0,0,0-2.95,1.59c-.25.31-.5.66-.3,1.08S63.48,124.81,63.82,124.88Zm71.8,24.2a4,4,0,0,0-1.26-2.78,1,1,0,0,0-1.18-.34c-.39.19-.46.6-.49,1a4.13,4.13,0,0,0,1.14,2.93,1.14,1.14,0,0,0,1.26.48C135.67,150.19,135.59,149.65,135.62,149.08ZM70.1,69.29a.83.83,0,0,0,.84-.32,1.15,1.15,0,0,0,0-1.25,4.43,4.43,0,0,0-2.77-1.92c-.9-.22-1.38.4-1.08,1.27A4.3,4.3,0,0,0,70.1,69.29Z"/><path class="cls-4" d="M173,89.57l-19.9-4.76c-1.36-.32-2.7-.68-4.06-1s-2,.41-1.6,1.73c.54,1.62,1.16,3.23,1.73,4.84.47,1.34.15,1.88-1.24,2l-20.73,2.11c-3.7.37-7.39.72-11.08,1.13-.73.08-1.12,0-1.37-.79a5.06,5.06,0,0,0-7-3.27c-.87.36-1.14.1-1.52-.6Q96.92,73.56,87.54,56.17c-.73-1.37-.34-2,1.21-2.05,1.35,0,2.71,0,4.07,0,.65,0,1.3-.06,1.59-.8s-.25-1.11-.61-1.56-.52-.61-.78-.91a3.68,3.68,0,0,0-1.34-3.47c-.6-.55-1.21-.59-1.5.38-2.45-2.35-4.73-4.86-7-7.41a37,37,0,0,1,8.26-3.09,67.17,67.17,0,0,1,16-2.53A63.57,63.57,0,0,1,171.66,82.3,29.76,29.76,0,0,1,173,89.57ZM118.65,40.74a4.83,4.83,0,0,0-4.88,4.84,5,5,0,0,0,5,5,5,5,0,0,0,4.85-4.92A4.79,4.79,0,0,0,118.65,40.74Zm24.1,11c0-.85-.46-1.24-1.19-1a4.1,4.1,0,0,0-2.13,3.38c.09.73.45,1.11,1.23.78A4.27,4.27,0,0,0,142.75,51.78Zm17.2,24a4.32,4.32,0,0,0,2.79-1.64c.55-.77.2-1.41-.73-1.47a3.76,3.76,0,0,0-3,1.42,1,1,0,0,0-.32,1.2C158.88,75.75,159.35,75.77,160,75.77Z"/><path class="cls-5" d="M95.66,29.69c-3.8.92-7.51,2-11.2,3.17A47.35,47.35,0,0,1,95.66,29.69Z"/><path class="cls-4" d="M114,28.36H106.4A28.37,28.37,0,0,1,114,28.36Z"/><path class="cls-5" d="M130.85,31.47l-5.21-1.36A13,13,0,0,1,130.85,31.47Z"/><path class="cls-5" d="M117.73,28.77a9.62,9.62,0,0,1,4.56.67Z"/><path class="cls-5" d="M104.75,28.59l-4.06.42a13.86,13.86,0,0,1,4.07-.75Z"/><path class="cls-5" d="M137.54,33.76a8.36,8.36,0,0,1-2.86-1A7.54,7.54,0,0,1,137.54,33.76Z"/><path class="cls-5" d="M134.54,32.53c-.63.16-.92-.13-1.35-.3C133.73,32,134,32.29,134.54,32.53Z"/><path class="cls-3" d="M166.89,99.88a4.91,4.91,0,0,1-3.61,5.66,4.77,4.77,0,0,1-5.69-2.94C160.63,101.48,163.79,100.77,166.89,99.88Z"/><path class="cls-6" d="M70.53,34.51q2.77,11.12,5.56,22.25l-.24.06Q73.1,45.69,70.34,34.55Z"/><path class="cls-3" d="M90.18,47.75c.29-1,.9-.93,1.5-.38A3.68,3.68,0,0,1,93,50.84,21.34,21.34,0,0,1,90.18,47.75Z"/><path class="cls-6" d="M71,30a.65.65,0,0,1,.48.47h0A.57.57,0,0,1,71,30Z"/><path class="cls-6" d="M71.51,30.45l.24.24h0l-.24-.24Z"/><path class="cls-6" d="M72.71,31.9l.24.23h0l-.24-.23Z"/><path class="cls-6" d="M72.47,31.66l.24.24h0l-.24-.24Z"/><path class="cls-6" d="M72.48,31.65l-.09-.07.08.08Z"/><path class="cls-6" d="M71.75,30.69l.09.07-.08-.08Z"/><path class="cls-6" d="M71,30l-.1-.06L71,30Z"/><path class="cls-6" d="M73,32.13l.1.06L73,32.12Z"/><path class="cls-6" d="M36.33,82.38A5,5,0,0,1,36,84c-1.09-1.16-1.8-2.61-2.89-3.78-4.44-4.74-10.06-7.31-16.2-8.93-1.79-.46-3.63-.74-5.68-1.15,1.29-.57,2.38-.1,3.4,0A33.43,33.43,0,0,1,31.7,77.25,19.92,19.92,0,0,1,36.33,82.38Z"/><path class="cls-1" d="M66.22,127.23c1.79-3.29,3.19-6.76,4.76-10.15a3.73,3.73,0,0,1,3.72-2.37l16.89,0c2,0,2.49,1,1.66,2.87-1.19,2.69-2.13,5.49-3.23,8.21a65.66,65.66,0,0,1-3.49,8.24c-.2,0-.4.06-.6.06H47.62a27.13,27.13,0,0,1,2.34-3c.36-.47.67-.36.92,0,.81,1.34,2,1.48,3.46,1.2.11-.76-.58-1.31-.62-2l.05-.06a5.52,5.52,0,0,1,1.49,1c0,.14.08.19.21.18h0c.2,1.35,1.21,1,2,.94l5.61.05c.31,0,.69.07.85-.28.67-1.59,1.71-3,2-4.75h0C66.19,127.5,66.17,127.32,66.22,127.23Zm13.24-2.45a1.8,1.8,0,0,0,.64,1.52,1.06,1.06,0,0,0,1.23-.1,3.26,3.26,0,0,0,1.09-3.31,1.06,1.06,0,0,0-1.86-.51A3.5,3.5,0,0,0,79.46,124.78Z"/><path class="cls-1" d="M60.41,106.1a1.18,1.18,0,0,1,.49,1.15c-.23,1.21-.47,2.42-.64,3.64-.11.78-.53,1-1.24.91a17.82,17.82,0,0,1-2.89-.67c-1.39-.34-2.32-.95-2.25-2.64.07-1.46-.23-2.93-.27-4.4,0-1.8-.48-2.18-2.28-1.81-.83-1-1-1.87-.09-2.44a1.75,1.75,0,0,0,.81-2.35,2.3,2.3,0,0,1,0-.59,2.4,2.4,0,0,1,3.7-.89c.88.53,2.37.44,2.71-.28a2.27,2.27,0,0,1,2.65-1.28,3.37,3.37,0,0,1,2.2,3.94c-.19,1.1-.81,1.51-2.39,1.6a8.86,8.86,0,0,1-2.31-.56c-1.13-.39-2.84.4-2.89,1.37a44.85,44.85,0,0,0-.07,4.78c0,1.14.82,1.54,1.91,1.18A6,6,0,0,1,60.41,106.1Z"/><path class="cls-4" d="M57.51,132.38c-.84,0-1.85.41-2-.94Z"/><path class="cls-1" d="M53.72,130.32c-.12,0-.21-.12-.11-.2s.14,0,.16.14Z"/><path class="cls-4" d="M55.47,131.45c-.13,0-.21,0-.21-.18Z"/><path class="cls-5" d="M43.67,71.24c-.9,2.89-2.11,5.67-2.94,8.58a5.12,5.12,0,0,1,.54-2.56c.61-1.88,1.31-3.73,2-5.58.06-.16.06-.52.43-.42Z"/><path class="cls-5" d="M56,51.86h0l-.12.31c0,.13-.08.12,0,0A1.2,1.2,0,0,1,56,51.86Z"/><path class="cls-5" d="M58.43,49.61l-.17-.15a1.47,1.47,0,0,1,.29-.32c.12-.07.21,0,.16.15A1.65,1.65,0,0,1,58.43,49.61Z"/><path class="cls-5" d="M56.92,51.13c-.11.19-.34.49-.44.39-.27-.28.15-.39.27-.57Z"/><path class="cls-5" d="M59.61,48.08c.19-.12.3-.56.58-.28.11.11-.21.33-.4.45Z"/><path class="cls-5" d="M57.93,49.72l.22.06a1.38,1.38,0,0,1-.19.28s-.13,0-.19-.05Z"/><path class="cls-5" d="M57.14,50.87l-.22.26L56.75,51l.24-.26Z"/><path class="cls-5" d="M59.36,48.31l.25-.23.18.17-.25.22A.93.93,0,0,0,59.36,48.31Z"/><polygon class="cls-5" points="43.69 71.26 43.7 71.2 43.67 71.24 43.69 71.26"/><path class="cls-5" d="M57.2,50.48c.11-.08.2-.29.36-.08,0,0-.11.16-.17.24Z"/><path class="cls-5" d="M59.54,48.47l-.24.25-.18-.16.24-.25A.93.93,0,0,1,59.54,48.47Z"/><path class="cls-5" d="M57,50.69l.21-.21.19.16-.25.23Z"/><path class="cls-5" d="M59.3,48.72c-.07.06-.18.19-.21.17-.21-.11,0-.22,0-.33Z"/><path class="cls-4" d="M78.71,153.4l-2.53-5.64c-1.15-2.59-2.27-5.19-3.44-7.77-.34-.75-.39-1.14.66-1.12,3.55,0,7.11,0,10.67,0,.54,0,1.12-.07.72.82C82.81,144.14,80.84,148.59,78.71,153.4Z"/><path class="cls-4" d="M75.84,151.66a37.47,37.47,0,0,1-6.15-4.3,56.46,56.46,0,0,1-8.75-8.46c2.87,0,5.74,0,8.61,0a.88.88,0,0,1,.94.55C72.27,143.49,74.21,147.51,75.84,151.66Z"/><path class="cls-2" d="M44.52,138.85l0,0a11.9,11.9,0,0,1-7.23,0h7.18Z"/><path class="cls-6" d="M37.3,138.84h0l-.53-.06C37,138.75,37.16,138.64,37.3,138.84Z"/><path class="cls-3" d="M55.23,151.11a4.36,4.36,0,0,1-3.45,1.25c-.56,0-1.19-.25-1.68.26-.79-1.75-1.57-3.51-2.48-5.26A22.84,22.84,0,0,1,55.23,151.11Z"/><path class="cls-2" d="M51.44,174.7l-.58-1.38c1,0,1.8-.8,2.83-.46,0,.23.08.46.14.69.16.62.6,1.37-.23,1.75A1.56,1.56,0,0,1,51.44,174.7Z"/><path class="cls-6" d="M170.86,39.33c-.34.15-.52-.11-.71-.3a16.19,16.19,0,0,1-3.07-4.09,2.91,2.91,0,0,1,.21-3.06c.36-.62.83-.73,1.33-.17s1.15,1.33,1.71,2c.07.09.19.22.16.3-.67,2.11,1.46,2.47,2.29,3.64a.64.64,0,0,0,.52.24c1.87-.51,2.23,1.44,3.41,2.06.28.15.13.5-.09.72a2.54,2.54,0,0,1-1.11.67,4,4,0,0,1-4.66-2c.73.17,1.16.81,1.78,1.16a3.13,3.13,0,0,0,3,.29c.25-.11.55-.21.51-.57A5.94,5.94,0,0,0,174,38.39c-1.39,0-4.36-2.36-4.3-3.64.06-1-.54-1.58-1-2.28s-.78-.54-1.11.09a2.45,2.45,0,0,0,.13,2.49C168.53,36.64,169.91,37.82,170.86,39.33Z"/><path class="cls-6" d="M173.37,28.77a6.78,6.78,0,0,1,6.36,6.07c0,.36.23.95-.3,1s-.36-.56-.39-.89a6.1,6.1,0,0,0-5.69-5.48c-.34,0-1,.22-1-.34S173.07,28.92,173.37,28.77Z"/><path class="cls-6" d="M178,35.17c0,.31.1.72-.34.77s-.34-.35-.39-.61a4.37,4.37,0,0,0-4-4.06c-.27,0-.76,0-.72-.43s.47-.34.77-.32A5.27,5.27,0,0,1,178,35.17Z"/><path class="cls-6" d="M176.16,35.41c0,.26.1.68-.35.73s-.36-.34-.38-.61a2.39,2.39,0,0,0-2.16-2.42c-.29-.06-.63-.09-.59-.43s.48-.31.76-.29A3.18,3.18,0,0,1,176.16,35.41Z"/><path class="cls-6" d="M132.89,15.51c-.81-.18-1.32-.28-1.82-.41-4.2-1.09-6.11-4.82-2.84-8.86,3-3.69,9.17-4.66,13-2.93a6.88,6.88,0,0,1,2.14,10.58c-2.19,2.46-5.14,3.26-8.19,3.8a51.06,51.06,0,0,1-5.11.47c-.46,0-1.07.06-1.16-.56s.56-.56.93-.73A16.58,16.58,0,0,0,132.89,15.51Zm-.33,1.4a4.07,4.07,0,0,0,2-.14,14.43,14.43,0,0,0,7.12-2.54c2.07-1.6,2.55-3.81,2.2-6.22S142,4.36,139.74,3.76a11.72,11.72,0,0,0-4.17-.19,8.93,8.93,0,0,0-7.11,4.07c-1.68,2.65-.87,5.16,2.06,6.24a14,14,0,0,0,6.27.68,15.92,15.92,0,0,1-2,1.18Z"/><path class="cls-6" d="M37.54,34a6.54,6.54,0,0,1,6.7,5.76,7,7,0,0,1-.8,3.57,51.84,51.84,0,0,1-4,7.51,2.11,2.11,0,0,1-3.6.33C33.93,48.15,32,45.08,31,41.54a5.91,5.91,0,0,1,3.22-6.68A7.46,7.46,0,0,1,37.54,34Zm5.69,6.15a5.35,5.35,0,0,0-4.94-5.13c-4-.5-7.85,3.13-6,7.36a65.27,65.27,0,0,0,4,7.73c.73,1.2,1.67,1.18,2.37,0,1-1.62,1.9-3.24,2.73-4.92S43.22,42.07,43.23,40.19Z"/><path class="cls-6" d="M82.34,10.33c0,1.32,0,2.64,0,3.95A1.49,1.49,0,0,1,80.81,16c-3.22.2-6.45.38-9.68.52-1.34.06-1.78-.43-1.79-1.78q0-3.84,0-7.68c0-.32-.14-.83.39-.85s.55.48.55.88c0,2.39,0,4.79,0,7.19,0,1,.21,1.37,1.26,1.3,3-.22,6-.36,8.95-.51A1,1,0,0,0,81.56,14q0-3.66,0-7.32c0-.63-.18-1.16-.94-1.08-2.58.26-5.15.57-7.72.83-1.1.11-1.08.55-.52,1.3.91,1.22,1.81,2.44,2.67,3.69.49.73.86.66,1.35,0,.95-1.33,1.95-2.63,2.94-3.93.23-.31.5-.78.94-.4s0,.67-.21.93c-1,1.39-2,2.78-3.08,4.13a1.5,1.5,0,0,1-2.53,0q-1.56-2.05-3-4.17c-.8-1.17-.32-2.27,1.07-2.42,2.73-.31,5.47-.6,8.21-.83a1.34,1.34,0,0,1,1.62,1.46c0,1.4,0,2.8,0,4.2Z"/><path class="cls-3" d="M99.74,154.74a4.89,4.89,0,0,1-5-4.87,5,5,0,0,1,4.81-5,4.92,4.92,0,1,1,.17,9.83Z"/><path class="cls-3" d="M61.09,94.45a2.27,2.27,0,0,0-2.65,1.28c-.34.72-1.83.81-2.71.28a2.4,2.4,0,0,0-3.7.89,4.5,4.5,0,0,1,.42-5.31A4.85,4.85,0,0,1,58,90.05,4.7,4.7,0,0,1,61.09,94.45Z"/><path class="cls-2" d="M60.41,106.1a6,6,0,0,0-2.87.66c-1.09.36-1.86,0-1.91-1.18a44.85,44.85,0,0,1,.07-4.78c0-1,1.76-1.76,2.89-1.37a8.86,8.86,0,0,0,2.31.56A33.81,33.81,0,0,1,60.41,106.1Z"/><path class="cls-3" d="M157.86,131.7a4.2,4.2,0,0,1-3.18-2.4c-.24-.83.25-1.11.94-1.11a4.31,4.31,0,0,1,3.16,2.27C159,131.22,158.68,131.7,157.86,131.7Z"/><path class="cls-3" d="M63.82,124.88c-.34-.07-.82-.06-1-.52s0-.77.3-1.08A4.29,4.29,0,0,1,66,121.69a.94.94,0,0,1,.86,1.62A4.51,4.51,0,0,1,63.82,124.88Z"/><path class="cls-3" d="M135.62,149.08c0,.57,0,1.11-.53,1.31a1.14,1.14,0,0,1-1.26-.48,4.13,4.13,0,0,1-1.14-2.93c0-.42.1-.83.49-1a1,1,0,0,1,1.18.34A4,4,0,0,1,135.62,149.08Z"/><path class="cls-3" d="M70.1,69.29A4.3,4.3,0,0,1,67,67.07c-.3-.87.18-1.49,1.08-1.27a4.43,4.43,0,0,1,2.77,1.92,1.15,1.15,0,0,1,0,1.25A.83.83,0,0,1,70.1,69.29Z"/><path class="cls-2" d="M66.22,127.23c0,.09,0,.27-.23.18Z"/><path class="cls-3" d="M118.65,40.74a4.79,4.79,0,0,1,4.93,4.88,5,5,0,0,1-4.85,4.92,5,5,0,0,1-5-5A4.83,4.83,0,0,1,118.65,40.74Z"/><path class="cls-3" d="M142.75,51.78A4.27,4.27,0,0,1,140.66,55c-.78.33-1.14-.05-1.23-.78a4.1,4.1,0,0,1,2.13-3.38C142.29,50.54,142.74,50.93,142.75,51.78Z"/><path class="cls-3" d="M160,75.77c-.6,0-1.07,0-1.28-.49a1,1,0,0,1,.32-1.2,3.76,3.76,0,0,1,3-1.42c.93.06,1.28.7.73,1.47A4.32,4.32,0,0,1,160,75.77Z"/><path class="cls-3" d="M79.46,124.78a3.5,3.5,0,0,1,1.1-2.4,1.06,1.06,0,0,1,1.86.51,3.26,3.26,0,0,1-1.09,3.31,1.06,1.06,0,0,1-1.23.1A1.8,1.8,0,0,1,79.46,124.78Z"/><path class="cls-2" d="M170.86,39.33c-1-1.51-2.33-2.69-3.19-4.28a2.45,2.45,0,0,1-.13-2.49c.33-.63.68-.72,1.11-.09s1.08,1.23,1,2.28c-.06,1.28,2.91,3.62,4.3,3.64a5.94,5.94,0,0,1,2.13,1.81c0,.36-.26.46-.51.57a3.13,3.13,0,0,1-3-.29c-.62-.35-1-1-1.78-1.16Z"/><path class="cls-2" d="M132.56,16.91l2.27-1.17a15.92,15.92,0,0,0,2-1.18,14,14,0,0,1-6.27-.68c-2.93-1.08-3.74-3.59-2.06-6.24a8.93,8.93,0,0,1,7.11-4.07,11.72,11.72,0,0,1,4.17.19c2.23.6,3.82,1.89,4.16,4.25s-.13,4.62-2.2,6.22a14.43,14.43,0,0,1-7.12,2.54A4.07,4.07,0,0,1,132.56,16.91Z"/><path class="cls-2" d="M43.23,40.19c0,1.88-1,3.42-1.77,5s-1.78,3.3-2.73,4.92c-.7,1.2-1.64,1.22-2.37,0a65.27,65.27,0,0,1-4-7.73c-1.87-4.23,2-7.86,6-7.36A5.35,5.35,0,0,1,43.23,40.19Zm-6.29,4.43a4.19,4.19,0,0,0,4.21-3.38A4.24,4.24,0,0,0,39,36.72a4.07,4.07,0,0,0-5,.89c-.23.27-.57.56-.18.91s.58,0,.82-.2a4.08,4.08,0,0,1,.63-.54,3,3,0,0,1,3.59,0,3,3,0,0,1,1.37,3.1,3.22,3.22,0,0,1-3.12,2.78,3.16,3.16,0,0,1-3.21-2.8c-.08-.4-.1-.88-.66-.77s-.33.58-.32.91A4.06,4.06,0,0,0,36.94,44.62Z"/><path class="cls-6" d="M36.94,44.62A4.06,4.06,0,0,1,32.87,41c0-.33-.17-.81.32-.91s.58.37.66.77a3.16,3.16,0,0,0,3.21,2.8,3.22,3.22,0,0,0,3.12-2.78,3,3,0,0,0-1.37-3.1,3,3,0,0,0-3.59,0,4.08,4.08,0,0,0-.63.54c-.24.25-.53.47-.82.2s-.05-.64.18-.91a4.07,4.07,0,0,1,5-.89,4.24,4.24,0,0,1,2.18,4.52A4.19,4.19,0,0,1,36.94,44.62Z"/></g></g></svg>